<svg xmlns="http://www.w3.org/2000/svg" viewBox="0 0 64 64"><defs><linearGradient id="g" x1="10" y1="54" x2="54" y2="10" gradientUnits="userSpaceOnUse"><stop stop-color="#0b4f52"/><stop offset=".58" stop-color="#0aa78f"/><stop offset="1" stop-color="#45d37d"/></linearGradient></defs><rect width="64" height="64" rx="14" fill="#f7f4ed"/><path d="M13 45V20a4 4 0 0 1 4-4h4v29h-8Zm13 0V20l13 12-7 6v7h-6Z" fill="#07575a"/><path d="M36 45v-9l6-5v14h-6Zm8 0V27l6-5v23h-6Z" fill="url(#g)"/><path d="M27 35c10-1 18-6 24-15l-3-1 9-5-1 10-2-2c-7 10-16 16-27 17v-4Z" fill="url(#g)"/></svg>